<?xml version="1.0" encoding="utf-8"?>
<!-- Generator: Adobe Illustrator 16.0.0, SVG Export Plug-In . SVG Version: 6.00 Build 0)  -->
<!DOCTYPE svg PUBLIC "-//W3C//DTD SVG 1.1//EN" "http://www.w3.org/Graphics/SVG/1.1/DTD/svg11.dtd">
<svg version="1.1" id="Layer_1" xmlns="http://www.w3.org/2000/svg" xmlns:xlink="http://www.w3.org/1999/xlink" x="0px" y="0px"
	 width="25.723px" height="13.401px" viewBox="0 0 25.723 13.401" enable-background="new 0 0 25.723 13.401" xml:space="preserve">
<g>
	<path fill="#00D2E0" d="M12.998,0.006h5.164c1.201,0,2.27,0.164,3.209,0.489c0.934,0.324,1.727,0.781,2.371,1.368
		s1.137,1.285,1.473,2.095c0.338,0.811,0.508,1.7,0.508,2.669v0.038c0,0.971-0.17,1.867-0.518,2.69
		c-0.344,0.822-0.842,1.533-1.492,2.132c-0.65,0.601-1.451,1.069-2.4,1.406c-0.951,0.34-2.027,0.508-3.225,0.508h-5.09V0.006z"/>
	<path fill="#EF4F50" d="M5.201,6.5h0.725c1.131,0,1.102,0.084,1.986,0.251c0.889,0.167,1.635,0.4,2.244,0.704
		c0.609,0.301,1.072,0.66,1.393,1.075c0.318,0.419,0.479,0.879,0.479,1.378v0.015c0,0.499-0.162,0.963-0.486,1.384
		c-0.326,0.425-0.799,0.788-1.412,1.101c-0.613,0.306-1.371,0.548-2.27,0.722c-0.898,0.175-1.916,0.26-3.047,0.26H0L5.201,6.5z"/>
	<path fill="#EF4F50" d="M6.828,6.888H6.105c-1.133,0-1.104-0.083-1.99-0.248C3.229,6.471,2.48,6.237,1.873,5.937
		C1.264,5.633,0.799,5.273,0.48,4.859C0.162,4.44,0,3.983,0,3.483v-0.02c0-0.498,0.164-0.958,0.49-1.384
		C0.816,1.66,1.287,1.293,1.9,0.984c0.615-0.308,1.373-0.549,2.268-0.721C5.068,0.088,6.084,0,7.217,0h4.811L6.828,6.888z"/>
</g>
<g>
</g>
<g>
</g>
<g>
</g>
<g>
</g>
<g>
</g>
<g>
</g>
<g>
</g>
<g>
</g>
<g>
</g>
<g>
</g>
<g>
</g>
<g>
</g>
<g>
</g>
<g>
</g>
<g>
</g>
</svg>
